<?xml version='1.0' encoding='utf-8'?>
<!DOCTYPE svg PUBLIC '-//W3C//DTD SVG 1.1//EN' 'http://www.w3.org/Graphics/SVG/1.1/DTD/svg11.dtd'>
<svg version="1.1" xmlns="http://www.w3.org/2000/svg" viewBox="0 0 512 512" xmlns:xlink="http://www.w3.org/1999/xlink" enable-background="new 0 0 512 512">
  <g>
    <g>
      <g>
        <path d="m70.1,257.7c11.3,0 20.4-9.1 20.4-20.4v-136.2c0-11.3-9.1-20.4-20.4-20.4-11.3,0-20.4,9.1-20.4,20.4v136.2c7.10543e-15,11.3 9.1,20.4 20.4,20.4z"/>
        <path d="m53.3,460.2c9.9-66.5 67.4-117.7 136.6-117.7h132c69.2,0 126.8,51.2 136.7,117.7h-405.3-1.42109e-14zm116.7-269.5h172c2,5.9 3.1,12 3.1,18.1 0,38.3-40,69.5-89.1,69.5-49.2,0-89.1-31.2-89.1-69.5 0-6.1 1-12.2 3.1-18.1zm10.1-79l68.4,26.7c6.2,2.4 10,2.4 14.9,0l68.4-26.7v38.2h-151.7v-38.2zm75.9-59.1l67.3,18.6-67.3,26.3-67.3-26.3 67.3-18.6zm245,424.9c-1.6-95.9-79-173.6-174.8-175.9 35.9-19.7 59.8-53.9 59.8-92.8 0-17-4.6-33.7-13.3-48.7v-64.4l22.7-8.9c8.2-3.2 13.4-11.3 13-20.1-0.5-8.8-6.5-16.3-15-18.6l-132-36.4c-3.6-1-7.3-1-10.9,3.55271e-15l-131.9,36.5c-8.5,2.3-14.5,9.8-15,18.6-0.4,8.8 4.8,16.9 13,20.1l22.7,8.9v64.4c-8.7,15.1-13.3,31.7-13.3,48.7 0,38.9 23.8,73.2 59.8,92.8-96.8,2.2-174.8,81.6-174.8,178.9 0,11.3 9.1,20.4 20.4,20.4h449.2c0.1,0 0.1,0 0.2,0 11.3,0 20.2-7.6 20.2-23.5z"/>
      </g>
    </g>
  </g>
</svg>
